# xmcd CD database file generated by Grip 2.93
# 
# Track frame offsets:
#       150
#       13642
#       24672
#       36970
#       49372
#       60617
#       72217
#       83400
#       95455
#       114235
#       126042
#       138037
#       149645
#       160375
#       176212
#       187937
# 
# Disc length: 2701 seconds
# 
# Revision: 3
# Processed by: cddbd v1.4b41PL1 Copyright (c) Steve Scherf et al.
# Submitted via: Grip 2.93
# 
DISCID=d80a8b10
DTITLE=Bobby Bland - Greatest Hits Volume 1
DYEAR=1900
DGENRE=
TTITLE0=Farther Up The Road
TTITLE1=I'll Take Care of You
TTITLE2=I Pity The Fool
TTITLE3=Cry, Cry, Cry
TTITLE4=Don't Cry No More
TTITLE5=Ain't That Lovin' You
TTITLE6=Who Will The Next Fool Be
TTITLE7=Turn On Your Love Light
TTITLE8=Stormy Monday Blues
TTITLE9=Yield Not To Temptation
TTITLE10=That's The Way Love Is
TTITLE11=Call On Me
TTITLE12=These Hands (Small But Mighty)
TTITLE13=That Did It
TTITLE14=Good Time Charlie, Part One
TTITLE15=Chains Of Love
EXTD=
EXTT0=
EXTT1=
EXTT2=
EXTT3=
EXTT4=
EXTT5=
EXTT6=
EXTT7=
EXTT8=
EXTT9=
EXTT10=
EXTT11=
EXTT12=
EXTT13=
EXTT14=
EXTT15=
PLAYORDER=
